<svg xmlns="http://www.w3.org/2000/svg" width="128" height="128" viewBox="0 0 256 256" fill="none">
  <rect width="256" height="256" rx="60" fill="#F4F2ED"/>
  <g transform="scale(0.5) translate(64, 32)">
    <path fill="#000000" d="M128 46.9123C137.48 46.9123 146.824 52.5644 146.824 59.8326C146.824 67.1007 137.48 72.7528 128 72.7528C118.52 72.7528 109.176 67.1007 109.176 59.8326C109.176 52.5644 118.52 46.9123 128 46.9123Z"/>
    <path fill="#000000" d="M91.7958 90.0186L86.4952 98.7215C87.2793 102.728 92.3151 105.559 97.8047 105.559C101.026 105.559 104.235 104.155 105.024 101.933L106.054 97.9753L108.098 100.539L105.648 103.374L106.515 106.058C106.057 108.869"/>
  </g>
</svg>
